<svg xmlns="http://www.w3.org/2000/svg" version="1.1" xmlns:xlink="http://www.w3.org/1999/xlink" width="512" height="512" x="0" y="0" viewBox="0 0 64 64" style="enable-background:new 0 0 512 512" xml:space="preserve" class=""><g><g data-name="Layer 12"><path fill="#336ea3" d="M41 7a4 4 0 0 1 4 4v47a4 4 0 0 1-4 4H9a4 4 0 0 1-4-4V11a4 4 0 0 1 4-4z" opacity="1" data-original="#336ea3"></path><path fill="#407dbc" d="M41 7H9a3.961 3.961 0 0 0-1.64.36A3.961 3.961 0 0 0 7 9v47a4 4 0 0 0 4 4h32a3.961 3.961 0 0 0 1.64-.36A3.961 3.961 0 0 0 45 58V11a4 4 0 0 0-4-4z" opacity="1" data-original="#407dbc"></path><path fill="#9ebed3" d="M9 11h32v47H9z" opacity="1" data-original="#9ebed3"></path><path fill="#b3d8f1" d="M11 49.547A6.453 6.453 0 0 0 17.453 56H41V11H11z" opacity="1" data-original="#b3d8f1"></path><g fill="#fff"><path d="M13 16h6v6h-6zM22 16h16v2H22zM22 20h12v2H22zM22 26h16v2H22zM22 30h12v2H22zM22 36h10v2H22zM22 40h7.667v2H22zM22 46h5v2h-5zM22 50h5v2h-5zM13 26h6v6h-6zM13 36h6v6h-6zM13 46h6v6h-6z" fill="#ffffff" opacity="1" data-original="#ffffff"></path></g><path fill="#b48155" d="m59 56-16 6-16-6V42l16-6 16 6z" opacity="1" data-original="#b48155"></path><path fill="#d09e71" d="m59 42-16 6-16-6 16-6z" opacity="1" data-original="#d09e71"></path><path fill="#926745" d="M43 62V48l16-6v14z" opacity="1" data-original="#926745"></path><path fill="#5c4436" d="m33.576 39.534 16 6 2.848-1.068-16-6z" opacity="1" data-original="#5c4436"></path><path fill="#1b924a" d="M31 6h-1V4a2 2 0 0 0-2-2h-6a2 2 0 0 0-2 2v2h-1a2 2 0 0 0-2 2v2a2 2 0 0 0 2 2h12a2 2 0 0 0 2-2V8a2 2 0 0 0-2-2z" opacity="1" data-original="#1b924a"></path><path fill="#40b450" d="M31 6h-1V4a2 2 0 0 0-2-2h-6v3.411A4.59 4.59 0 0 0 26.589 10H33V8a2 2 0 0 0-2-2z" opacity="1" data-original="#40b450"></path></g></g></svg>