<svg xmlns="http://www.w3.org/2000/svg" version="1.1" xmlns:xlink="http://www.w3.org/1999/xlink" width="512" height="512" x="0" y="0" viewBox="0 0 60 60" style="enable-background:new 0 0 512 512" xml:space="preserve" class=""><g><path fill="#00bcd4" d="M43.84 59H2.16a1.155 1.155 0 0 1-1.11-1.48c.35-1.21.71-2.41 1.06-3.61a11.791 11.791 0 0 1 1.64-3.82 9.307 9.307 0 0 1 5.89-3.75L17 45s1.37 3 6 3 6-3 6-3l7.36 1.34a9.307 9.307 0 0 1 5.89 3.75 11.791 11.791 0 0 1 1.64 3.82c.35 1.2.71 2.4 1.06 3.61A1.155 1.155 0 0 1 43.84 59z" opacity="1" data-original="#00bcd4"></path><path fill="#783e22" d="M19.4 1c-.368 0-.715.034-1.069.057C29.79 1.631 38 7.309 38 16.12a12.343 12.343 0 0 1-2 6.144V23h.53a3.389 3.389 0 0 1 1.64.42 12.541 12.541 0 0 0 2.83-7.3C41 6.82 31.86 1 19.4 1z" opacity="1" data-original="#783e22" class=""></path><path fill="#ffe0b2" d="M29 45s-1.37 3-6 3-6-3-6-3a4.011 4.011 0 0 0 2-3.38v-2.25a13.013 13.013 0 0 0 8 0v2.25A4.011 4.011 0 0 0 29 45z" opacity="1" data-original="#ffe0b2" class=""></path><path fill="#ffe0b2" d="M36 20.9V27a13 13 0 1 1-26 0v-7.03a2.98 2.98 0 0 1 1.62-2.66A12.6 12.6 0 0 0 17.09 12s5.07 5.15 16.16 5.91A2.983 2.983 0 0 1 36 20.9z" opacity="1" data-original="#ffe0b2" class=""></path><path fill="#dfc49c" d="M33.25 17.91C22.16 17.15 17.09 12 17.09 12a11.273 11.273 0 0 1-.986 1.553A29.214 29.214 0 0 0 30.25 17.91 2.983 2.983 0 0 1 33 20.9V27a12.94 12.94 0 0 1-11.5 12.9A12.971 12.971 0 0 0 35.65 30a12.9 12.9 0 0 0 .35-3v-6.1a2.983 2.983 0 0 0-2.75-2.99z" opacity="1" data-original="#dfc49c" class=""></path><path fill="#ffe0b2" d="M10.35 30h-.88a3.5 3.5 0 0 1-2.45-5.97A3.383 3.383 0 0 1 9.47 23H10v4a12.9 12.9 0 0 0 .35 3zM40 26.5a3.478 3.478 0 0 1-3.47 3.5h-.88a12.9 12.9 0 0 0 .35-3v-4h.53a3.389 3.389 0 0 1 1.64.42A3.521 3.521 0 0 1 40 26.5z" opacity="1" data-original="#ffe0b2" class=""></path><path fill="#f5f5f5" d="M33.19 49.421a.978.978 0 0 0 0 1.158C34.646 52.569 39.829 59 46 59s11.354-6.431 12.81-8.421a.978.978 0 0 0 0-1.158C57.354 47.431 52.171 41 46 41s-11.354 6.431-12.81 8.421z" opacity="1" data-original="#f5f5f5" class=""></path><path fill="#cfd8dc" d="M58.81 49.421C57.354 47.431 52.171 41 46 41a9.125 9.125 0 0 0-1.5.139c5.5.9 9.974 6.456 11.31 8.282a.978.978 0 0 1 0 1.158c-1.336 1.826-5.81 7.378-11.31 8.282A9.125 9.125 0 0 0 46 59c6.171 0 11.354-6.431 12.81-8.421a.978.978 0 0 0 0-1.158z" opacity="1" data-original="#cfd8dc" class=""></path><circle cx="46" cy="50" r="5" fill="#3f51b5" opacity="1" data-original="#3f51b5" class=""></circle><path fill="#283593" d="M46 45a4.966 4.966 0 0 0-1.5.254 4.968 4.968 0 0 1 0 9.492A4.99 4.99 0 1 0 46 45z" opacity="1" data-original="#283593" class=""></path><g data-name="Icons copy"><path d="M46 40c-4.177 0-7.886 2.675-10.442 5.175l-6.2-1.126A2.948 2.948 0 0 1 28 41.62v-1.559A14.047 14.047 0 0 0 36.41 31h.12a4.5 4.5 0 0 0 3.162-7.671c-.04-.041-.089-.07-.131-.109A13.385 13.385 0 0 0 42 16.121C42 6.479 32.917 0 19.4 0A15.248 15.248 0 0 0 4 14.958a12.486 12.486 0 0 0 2.381 8.308c-.021.021-.047.036-.068.057A4.5 4.5 0 0 0 9.47 31h.12A14.047 14.047 0 0 0 18 40.061v1.559a2.949 2.949 0 0 1-1.363 2.43l-7.176 1.306a10.364 10.364 0 0 0-3.467 1.318 10.236 10.236 0 0 0-3.056 2.833A12.664 12.664 0 0 0 1.15 53.63L.688 55.2l-.6 2.033A2.156 2.156 0 0 0 2.16 60h41.68a2.2 2.2 0 0 0 .682-.121A10.057 10.057 0 0 0 46 60c6.64 0 12.1-6.759 13.617-8.83a1.971 1.971 0 0 0 0-2.34C58.1 46.759 52.64 40 46 40zm-9.155-11.032A13.884 13.884 0 0 0 37 27v-2.953a2.445 2.445 0 0 1 1.273.69 2.494 2.494 0 0 1-1.428 4.231zM6 14.958A13.237 13.237 0 0 1 19.4 2C31.722 2 40 7.675 40 16.121a11.448 11.448 0 0 1-2.181 6.092 4.248 4.248 0 0 0-.819-.166V20.9a3.99 3.99 0 0 0-3.685-3.987C22.794 16.191 17.85 11.345 17.8 11.3a1 1 0 0 0-1.6.243 11.567 11.567 0 0 1-5.035 4.877A3.976 3.976 0 0 0 9 19.971v2.075a4.427 4.427 0 0 0-.895.19C6 19.554 6 17.12 6 14.958zM7 26.5a2.483 2.483 0 0 1 .732-1.769A2.434 2.434 0 0 1 9 24.047V27a13.884 13.884 0 0 0 .155 1.968A2.485 2.485 0 0 1 7 26.5zm4 .5v-7.029a1.987 1.987 0 0 1 1.082-1.771 13.826 13.826 0 0 0 5.269-4.657c2 1.557 7.117 4.772 15.827 5.366A1.983 1.983 0 0 1 35 20.9V27a12 12 0 0 1-24 0zm12 14a14 14 0 0 0 3-.332v.952a4.81 4.81 0 0 0 1.633 3.606A5.909 5.909 0 0 1 23 47a5.915 5.915 0 0 1-4.634-1.773A4.81 4.81 0 0 0 20 41.62v-.952A14 14 0 0 0 23 41zM11 58v-3a1 1 0 0 0-2 0v3H2.16a.154.154 0 0 1-.127-.064.146.146 0 0 1-.023-.136q.3-1.02.6-2.029l.467-1.585a10.849 10.849 0 0 1 1.494-3.516 8.236 8.236 0 0 1 2.461-2.281 8.357 8.357 0 0 1 2.792-1.064l6.7-1.219C17.279 47.147 19.17 49 23 49s5.72-1.852 6.484-2.9l4.44.807c-.68.781-1.21 1.465-1.541 1.918a1.973 1.973 0 0 0 0 2.34 27.171 27.171 0 0 0 7.2 6.83zm35 0c-5.686 0-10.607-6.1-11.995-8 1.387-1.893 6.308-8 11.995-8s10.628 6.132 12 7.988C56.628 51.868 51.7 58 46 58z" fill="#000000" opacity="1" data-original="#000000" class=""></path><path d="M46 44a6 6 0 1 0 6 6 6.006 6.006 0 0 0-6-6zm0 10a4 4 0 1 1 4-4 4 4 0 0 1-4 4z" fill="#000000" opacity="1" data-original="#000000" class=""></path></g></g></svg>