<svg xmlns="http://www.w3.org/2000/svg" version="1.1" xmlns:xlink="http://www.w3.org/1999/xlink" width="512" height="512" x="0" y="0" viewBox="0 0 512.001 512.001" style="enable-background:new 0 0 512 512" xml:space="preserve" class=""><g><path d="m356.612 388.897 82.778-82.777 30.503 30.502-71.568 71.677-42.79 42.682-45.7 15.197 15.197-45.7z" style="" fill="#cccccc" data-original="#cccccc"></path><path d="M189.656 318.73c15.629 8.192 33.844 12.718 53.892 12.718s38.263-4.635 53.892-12.718v34.276s-22.203 26.945-53.892 26.945-53.892-26.945-53.892-26.945V318.73z" style="" fill="#fedaab" data-original="#fedaab" class=""></path><path d="m356.612 388.897-31.581 31.581-15.197 45.7 45.7-15.197 42.79-42.682 1.509 1.509c48.287 31.15 48.503 67.15 48.503 67.15v26.945H38.759v-26.945s.97-58.958 102.395-91.616c0 0 36.755-19.185 48.503-32.335 0 0 22.203 26.945 53.892 26.945s53.892-26.945 53.892-26.945c11.748 13.15 48.503 32.335 48.503 32.335 3.77 1.184 7.22 2.37 10.668 3.555z" style="" fill="#4cbd91" data-original="#4cbd91"></path><path d="M297.439 318.73c-15.629 8.084-33.844 12.718-53.892 12.718s-38.263-4.527-53.892-12.718c-34.598-18-57.34-53.353-63.161-95.497-16.706-2.263-33.844-18.108-33.844-31.903 0-14.874 14.443-21.557 32.335-21.557v-21.557s43.113 0 91.616-48.503c0 0 70.059 43.113 145.508 43.113v26.945c17.892 0 32.335 6.682 32.335 21.557 0 13.797-17.137 29.64-33.844 31.903-5.82 42.146-28.562 77.499-63.161 95.499z" style="" fill="#fedaab" data-original="#fedaab" class=""></path><path d="M216.601 99.714c-48.503 48.503-91.616 48.503-91.616 48.503v-5.389S119.38 8.099 243.547 8.099c123.951 0 118.562 134.729 118.562 134.729-75.448-.001-145.508-43.114-145.508-43.114z" style="" fill="#a67c52" data-original="#a67c52"></path><path d="m410.679 407.386 70.662-70.769-41.951-41.951-84.936 84.936a327.935 327.935 0 0 0-5.388-1.769c-9.629-5.07-33.312-18.489-43.529-28.132V323.51c32.68-18.787 55.045-52.405 62.206-93.531 18.607-5.311 34.8-22.685 34.8-38.652 0-16.221-12.185-26.993-32.335-29.225v-19.127c.158-4.58 1.563-67.652-37.994-108.823C310.439 11.49 280.608 0 243.548 0c-37.158 0-67.044 11.514-88.826 34.221-39.48 41.157-38.001 104.123-37.834 108.761v19.124c-20.151 2.232-32.335 13.004-32.335 29.225 0 15.967 16.194 33.339 34.799 38.652 7.162 41.134 29.533 74.756 62.206 93.533v26.19c-10.217 9.641-33.937 23.08-43.554 28.145-105.062 34.091-107.3 96.335-107.343 98.973l-.001 35.177h425.773v-35.092c-.009-1.577-.767-37.41-45.754-69.523zm47.767-70.76-65.843 65.943-41.434 41.329-28.548 9.493 9.492-28.542L439.391 317.57l19.055 19.056zm-260.692-5.353c14.14 5.487 29.485 8.273 45.794 8.273 16.181 0 31.523-2.8 45.794-8.317v18.639c-5.573 5.783-23.205 21.985-45.794 21.985-22.598 0-40.237-16.217-45.794-21.984v-18.596zM166.479 45.36c18.604-19.352 44.534-29.164 77.069-29.164 32.442 0 58.322 9.793 76.918 29.107 27.707 28.774 32.611 71.659 33.423 89.244-69.063-2.924-132.388-41.328-133.043-41.729l-5.447-3.353-4.523 4.523c-33.19 33.19-63.757 42.509-77.815 45.119.167-13.206 2.92-62.024 33.418-93.747zm-31.963 176.767-.841-6.092-6.094-.826c-11.717-1.587-26.833-13.452-26.833-23.879 0-12.488 18.552-13.459 24.237-13.459h8.098v-22.304c14.834-2.216 48.103-10.995 84.763-45.763 17.497 9.814 73.821 38.598 136.169 40.961l-.005 27.105h8.098c5.686 0 24.237.971 24.237 13.459 0 10.427-15.117 22.292-26.834 23.879l-6.094.826-.841 6.092c-5.559 40.254-27.019 72.846-58.86 89.411-15.155 7.839-32.034 11.813-50.171 11.813-18.337 0-35.203-3.968-50.155-11.805-31.855-16.573-53.315-49.166-58.874-89.418zm305.722 273.677H46.856v-18.699c.052-.948.975-13.941 12.483-30.19 20.263-28.612 57.024-45.086 84.297-53.867l.654-.211.61-.319c3.354-1.751 29.402-15.506 44.481-28.135 9.324 8.777 28.869 23.665 54.166 23.665 25.296 0 44.842-14.888 54.166-23.665 14.562 12.195 39.346 25.438 44.051 27.91l-23.812 23.812-20.903 62.858 62.852-20.902 39.146-39.047c39.676 27.209 41.14 56.328 41.19 58.025v18.764h.001z" style="" fill="#231f20" data-original="#231f20" class=""></path><path d="M195.04 425.743h80.838v16.196H195.04zM168.101 458.08h107.788v16.196H168.101zM130.376 458.08h21.557v16.196h-21.557z" style="" fill="#231f20" data-original="#231f20" class=""></path></g></svg>