<svg xmlns="http://www.w3.org/2000/svg" version="1.1" xmlns:xlink="http://www.w3.org/1999/xlink" width="512" height="512" x="0" y="0" viewBox="0 0 512 512" style="enable-background:new 0 0 512 512" xml:space="preserve" class=""><g><g data-name="User Delete 2"><path d="M240 408a71.991 71.991 0 0 0 71.927-69.1l-2.789-.507A16 16 0 0 1 296 322.647V272H184v50.647a16 16 0 0 1-13.138 15.742l-2.789.507A71.991 71.991 0 0 0 240 408Z" style="" fill="#fac7b7" data-original="#fac7b7"></path><path d="M412.88 357.251 311.927 338.9A71.991 71.991 0 0 1 240 408a71.991 71.991 0 0 1-71.927-69.1L67.12 357.251A72 72 0 0 0 8 428.089V512h464v-83.911a72 72 0 0 0-59.12-70.838Z" style="" fill="#0277bd" data-original="#0277bd"></path><path d="m412.88 357.251-14.845-2.7C335.474 440.281 234.254 496 120 496A343.421 343.421 0 0 1 8 477.327V512h464v-83.911a72 72 0 0 0-59.12-70.838Z" style="" fill="#0469bc" data-original="#0469bc"></path><circle cx="392" cy="392" r="112" style="" fill="#e56161" data-original="#e56161"></circle><path d="M474.571 316.336A119.951 119.951 0 0 1 300 455.883a112 112 0 1 0 174.571-139.547Z" style="" fill="#d65858" data-original="#d65858"></path><path d="M344 368v80a16 16 0 0 0 16 16h64a16 16 0 0 0 16-16v-80Z" style="" fill="#ededed" data-original="#ededed"></path><path d="m168 104 28.031 18.687a79.265 79.265 0 0 0 87.938 0L312 104s34.581 5.769 45.036 31.978C363.251 68.251 309.89 8 240 8S116.749 68.251 122.964 135.978C133.419 109.769 168 104 168 104Z" style="" fill="#525252" data-original="#525252"></path><path d="m351.226 168 3.878-18.929a119.819 119.819 0 0 0 1.932-13.093C346.581 109.769 312 104 312 104l-28.031 18.687a79.265 79.265 0 0 1-87.938 0L168 104s-34.581 5.769-45.036 31.978a119.819 119.819 0 0 0 1.932 13.093L128.774 168a19.342 19.342 0 0 0-18.765 24.034l4.56 18.24A28.682 28.682 0 0 0 142.394 232 102.175 102.175 0 0 0 240 304a102.175 102.175 0 0 0 97.606-72 28.682 28.682 0 0 0 27.825-21.726l4.56-18.24A19.342 19.342 0 0 0 351.226 168Z" style="" fill="#ffe7de" data-original="#ffe7de"></path><circle cx="200" cy="48" r="16" style="" fill="#848484" data-original="#848484"></circle><circle cx="240" cy="64" r="12" style="" fill="#848484" data-original="#848484"></circle><circle cx="64" cy="388" r="16" style="" fill="#4baee0" data-original="#4baee0"></circle><circle cx="104" cy="404" r="12" style="" fill="#4baee0" data-original="#4baee0"></circle><circle cx="176" cy="152" r="16" style="" fill="#fff5f2" data-original="#fff5f2"></circle><circle cx="216" cy="168" r="12" style="" fill="#fff5f2" data-original="#fff5f2"></circle><path d="M178.151 283.124A101.909 101.909 0 0 0 240 304a102.175 102.175 0 0 0 97.606-72 28.682 28.682 0 0 0 27.825-21.726l4.56-18.24A19.342 19.342 0 0 0 351.226 168l1.639-8H352c0-14.365-2.872-25.857-7.461-35.062a220.3 220.3 0 0 1-166.388 158.186Z" style="" fill="#f9d8cd" data-original="#f9d8cd"></path><path d="M304.892 27.5a136.124 136.124 0 0 1-114.1 91.693l5.237 3.491a79.265 79.265 0 0 0 87.938 0L312 104s34.581 5.769 45.036 31.978A117.537 117.537 0 0 0 304.892 27.5Z" style="" fill="#3f3f3f" data-original="#3f3f3f"></path><path d="M432 336h-80a16 16 0 0 0-16 16v16h112v-16a16 16 0 0 0-16-16ZM344 439.76V448a16 16 0 0 0 16 16h64a16 16 0 0 0 16-16v-56.392a135.688 135.688 0 0 1-96 48.152Z" style="" fill="#e2e2e2" data-original="#e2e2e2"></path><path d="M72 440a8 8 0 0 0-8 8v56a8 8 0 0 0 16 0v-56a8 8 0 0 0-8-8Z" fill="#000000" opacity="1" data-original="#000000"></path><path d="M240 400a64 64 0 0 1-63.357-54.97A23.985 23.985 0 0 0 192 322.646v-21.664a110.134 110.134 0 0 0 151.51-61.462 36.629 36.629 0 0 0 29.68-27.31l4.56-18.24a27.368 27.368 0 0 0-17.06-32.29l2.25-11a128.188 128.188 0 0 0 2.035-13.764v-.045c.36-3.881.551-7.765.551-11.631a123.767 123.767 0 0 0-9.67-48.08A125.269 125.269 0 0 0 240 0h-.01a124.754 124.754 0 0 0-47.33 9.2 8 8 0 0 0 3.02 15.409 8.04 8.04 0 0 0 3.02-.589l.16-.07a109.68 109.68 0 0 1 149.89 88.16c-15.314-12.475-34.312-15.814-35.436-16l-3.12-.519-30.661 20.445a71.285 71.285 0 0 1-79.065 0l-30.662-20.447-3.12.519c-1.124.188-20.124 3.527-35.438 16A108.5 108.5 0 0 1 152.16 60.13a8 8 0 0 0-1.64-11.2 7.978 7.978 0 0 0-11.19 1.639 125.742 125.742 0 0 0-18.31 34.861 123.938 123.938 0 0 0-6.56 39.81 127.263 127.263 0 0 0 2.6 25.44l2.25 11a27.279 27.279 0 0 0-17.06 32.29l4.56 18.24a36.616 36.616 0 0 0 29.67 27.31A110.091 110.091 0 0 0 176 291.488v31.158a8 8 0 0 1-6.569 7.872L65.689 349.38A79.962 79.962 0 0 0 0 428.09V504a8 8 0 0 0 16 0v-75.91a63.97 63.97 0 0 1 52.551-62.968l92.417-16.8A79.976 79.976 0 0 0 240 416a8 8 0 0 0 0-16Zm-89.96-170.36-1.73-5.61-5.92-.03a20.637 20.637 0 0 1-20.06-15.67l-4.56-18.24a11.535 11.535 0 0 1-.35-2.79 11.352 11.352 0 0 1 11.35-11.3h9.81l-5.85-28.53q-1.037-5.085-1.6-10.223c7.649-16.344 27.714-22.805 35.26-24.7l25.2 16.8a87.288 87.288 0 0 0 96.817 0l25.213-16.813c7.548 1.871 27.56 8.26 35.244 24.71-.377 3.42-.9 6.836-1.6 10.226L341.42 176h9.81a11.218 11.218 0 0 1 8.07 3.37 11.428 11.428 0 0 1 3.28 7.93 11.678 11.678 0 0 1-.35 2.8l-4.56 18.23A20.637 20.637 0 0 1 337.61 224h-5.87l-1.78 5.64A93.652 93.652 0 0 1 240.02 296h-.04a93.652 93.652 0 0 1-89.94-66.36Z" fill="#000000" opacity="1" data-original="#000000"></path><path d="M168.07 40.56a7.931 7.931 0 0 0 4.9-1.68 8 8 0 0 0-4.91-14.32 8 8 0 0 0 .01 16ZM488.35 342.85a8.009 8.009 0 0 0 6.87-12.09 8.054 8.054 0 0 0-6.89-3.92 8.008 8.008 0 0 0-6.87 12.09 8.041 8.041 0 0 0 6.89 3.92ZM508.3 362.33a7.991 7.991 0 0 0-7.75-6.03 8.315 8.315 0 0 0-1.98.24 8.027 8.027 0 0 0-5.78 9.73A104.039 104.039 0 0 1 342.16 483.3a8.09 8.09 0 0 0-3.84-.981 8 8 0 0 0-3.84 15.021A120.069 120.069 0 0 0 508.3 362.33ZM288 392a104 104 0 0 1 174.87-76.12 8 8 0 0 0 10.9-11.7A119.506 119.506 0 0 0 392.01 272H392a119.9 119.9 0 0 0-120 120 120.811 120.811 0 0 0 3.82 30.16 119.311 119.311 0 0 0 10.84 27.36 8 8 0 0 0 14.04-7.68A104.108 104.108 0 0 1 288 392ZM312.8 463.189a8.008 8.008 0 1 0 5.66 2.351 7.935 7.935 0 0 0-5.66-2.351Z" fill="#000000" opacity="1" data-original="#000000"></path><path d="M336 448a24.027 24.027 0 0 0 24 24h64a24.027 24.027 0 0 0 24-24v-72h8v-24a24.028 24.028 0 0 0-24-24h-32v-8a8 8 0 0 0-16 0v8h-32a24.028 24.028 0 0 0-24 24v24h8Zm96 0a8.009 8.009 0 0 1-8 8h-8v-48a8 8 0 0 0-16 0v48h-16v-48a8 8 0 0 0-16 0v48h-8a8.009 8.009 0 0 1-8-8v-72h80Zm-88-96a8.009 8.009 0 0 1 8-8h80a8.009 8.009 0 0 1 8 8v8h-96Z" fill="#000000" opacity="1" data-original="#000000"></path></g></g></svg>